<svg version="1.0" xmlns="http://www.w3.org/2000/svg"
 width="5000.000000pt" height="4500.000000pt" viewBox="0 0 5000.000000 4500.000000"
 preserveAspectRatio="xMidYMid meet">

<g transform="translate(0.000000,4500.000000) scale(0.100000,-0.100000)"
fill="#000000" stroke="none">
<path d="M13830 37860 c-498 -106 -1191 -684 -1655 -1380 -340 -510 -540
-1027 -601 -1556 -22 -190 -15 -527 15 -703 55 -319 150 -596 311 -907 370
-716 1050 -1396 1706 -1705 201 -95 442 -157 561 -146 43 5 53 2 57 -11 11
-36 334 -1357 333 -1359 -1 -1 -47 27 -101 62 -55 35 -160 95 -235 134 -132
68 -359 166 -367 159 -2 -2 3 -26 11 -53 17 -53 19 -132 6 -154 -7 -10 -68 22
-272 144 -257 153 -551 339 -687 433 -718 495 -1228 940 -1889 1649 -231 248
-335 347 -357 340 -6 -2 -21 -29 -34 -61 -93 -231 33 -716 301 -1161 201 -335
466 -629 766 -855 412 -309 1002 -555 1523 -636 142 -22 363 -22 453 0 73 18
148 56 163 82 7 13 23 9 112 -31 220 -97 447 -235 625 -378 l81 -65 17 -74
c10 -40 20 -83 23 -95 l6 -23 -138 0 c-370 0 -970 -53 -1314 -116 -390 -72
-551 -145 -432 -197 303 -134 2140 -180 3227 -82 579 53 661 127 255 230 -263
67 -767 132 -1198 154 -89 4 -165 10 -168 14 -9 8 -125 478 -122 489 2 5 48
27 102 48 120 49 259 130 358 208 75 60 218 205 236 239 11 19 10 19 -41 2
-29 -10 -77 -21 -106 -25 -53 -7 -54 -7 -48 17 25 101 41 310 62 804 66 1572
167 2623 381 3965 81 509 104 684 90 692 -30 20 -163 12 -241 -14 -357 -119
-714 -715 -954 -1593 -154 -562 -221 -1100 -208 -1670 17 -728 133 -1342 331
-1750 101 -207 209 -337 333 -402 29 -16 53 -31 53 -35 0 -28 -328 -220 -394
-230 -18 -3 -34 54 -182 652 -89 360 -163 656 -163 656 -1 1 -17 -14 -36 -33
-19 -19 -39 -33 -44 -31 -9 3 -37 39 -257 330 -295 389 -485 691 -659 1043
-557 1128 -600 2289 -130 3494 143 367 303 680 615 1206 59 99 121 205 138
236 l30 57 -36 6 c-60 10 -122 6 -212 -14z"/>
<path d="M33150 32673 c-301 -30 -634 -145 -917 -317 l-91 -55 -69 15 c-112
25 -332 30 -454 9 -261 -43 -490 -150 -709 -332 -236 -196 -417 -471 -485
-738 l-23 -89 -88 177 c-49 97 -92 177 -96 177 -15 0 -141 -138 -188 -206 -66
-95 -105 -180 -131 -284 -30 -118 -23 -287 16 -410 91 -282 305 -536 626 -743
84 -54 229 -132 233 -125 2 2 10 40 19 86 19 100 48 163 98 213 132 132 323
11 395 -251 24 -84 24 -273 1 -343 l-15 -48 114 -82 c220 -159 423 -267 629
-336 291 -97 553 -98 742 -3 256 130 465 448 566 862 47 192 61 318 61 545 0
234 -16 370 -65 562 -84 328 -282 676 -536 944 -84 87 -84 89 -46 75 62 -22
182 -85 258 -135 94 -62 288 -252 379 -370 227 -298 428 -715 517 -1076 57
-233 72 -373 73 -660 1 -364 -29 -594 -134 -1020 -79 -325 -182 -643 -453
-1406 -264 -744 -351 -1114 -351 -1499 0 -200 13 -292 61 -444 160 -509 693
-882 1418 -992 150 -23 503 -26 645 -5 196 28 415 93 561 166 247 124 457 343
584 609 208 436 266 1052 174 1841 -17 154 -73 506 -99 629 -5 27 -8 51 -6 53
2 3 24 -33 48 -79 70 -132 370 -669 372 -666 6 8 -17 286 -39 470 -145 1222
-636 2388 -1420 3368 -73 92 -111 153 -189 303 -387 750 -730 1179 -1138 1422
-245 146 -564 217 -848 188z"/>
<path d="M25405 26804 c-357 -56 -653 -103 -657 -103 -5 -1 -8 -96 -8 -211 l0
-211 33 6 c123 22 1065 165 1086 165 14 0 426 -145 916 -322 979 -355 940
-338 964 -432 20 -81 -24 -175 -96 -205 -34 -13 -5422 -851 -5476 -851 -24 0
-341 110 -910 316 -480 174 -884 322 -899 330 -51 26 -73 71 -73 150 0 61 4
75 27 105 14 19 43 43 65 52 22 10 456 81 1043 172 553 85 1017 158 1033 161
l27 6 0 204 c0 188 -1 204 -17 204 -17 0 -5876 -916 -5919 -925 -19 -4 -23
-27 -70 -452 l-49 -447 -90 -42 c-498 -232 -1135 -357 -1735 -341 -539 15
-1030 124 -1511 336 l-96 43 -12 101 c-6 56 -14 132 -18 170 -3 37 -10 67 -15
67 -5 0 -410 -63 -900 -140 -491 -77 -902 -140 -914 -140 -21 0 -21 -5 -27
-187 -17 -497 -29 -1235 -21 -1242 5 -5 193 -49 417 -97 225 -49 415 -93 422
-99 7 -5 814 -1539 1794 -3407 l1781 -3397 -2187 -2603 c-1280 -1523 -2198
-2623 -2213 -2652 -67 -134 -20 -308 107 -400 122 -89 297 -78 403 25 20 19
976 1153 2125 2522 1967 2342 2090 2486 2102 2465 6 -13 970 -1850 2141 -4083
2294 -4375 2156 -4121 2267 -4175 41 -21 65 -25 135 -25 73 0 93 4 142 28 62
31 116 84 149 149 27 53 37 177 19 233 -7 21 -1001 1921 -2208 4224 -1208
2302 -2196 4193 -2196 4202 -1 12 4097 4906 4249 5075 18 21 243 59 2845 480
1554 251 2829 460 2833 464 4 4 -54 46 -130 95 -299 192 -991 666 -1550 1061
-292 208 -303 214 -350 214 -26 0 -674 -105 -1440 -233 l-1391 -233 -994 348
c-1230 431 -1200 420 -1195 424 5 5 8659 1454 8684 1454 11 0 332 -110 714
-244 465 -163 697 -240 704 -234 7 7 6 12 -1 15 -6 2 -19 9 -28 16 -16 11 -13
22 29 127 26 63 62 148 81 189 19 41 34 79 34 85 0 6 -49 23 -108 37 -153 37
-255 83 -314 139 -62 59 -64 92 -12 150 86 95 280 154 700 216 27 4 42 21 119
137 49 72 115 167 148 210 32 43 56 81 53 84 -3 3 -103 25 -223 49 -120 23
-535 106 -923 183 -388 77 -1162 230 -1720 341 -558 111 -1022 203 -1030 204
-8 2 -307 -43 -665 -100z m-9135 -4799 c1906 -416 3475 -759 3488 -763 20 -6
-153 -215 -1887 -2280 -1051 -1250 -1914 -2273 -1918 -2274 -7 -1 -3192 6058
-3193 6075 0 4 10 5 23 2 12 -3 1581 -345 3487 -760z"/>
<path d="M29396 24603 c209 -226 350 -379 444 -483 52 -57 149 -162 215 -233
66 -71 124 -135 129 -142 6 -8 3 -21 -10 -37 -10 -13 -157 -190 -325 -393
-436 -526 -628 -760 -626 -761 3 -2 1281 206 1284 209 1 2 -13 60 -32 129 -72
264 -142 556 -195 816 l-21 104 53 61 c119 137 240 288 236 293 -3 2 -210 95
-459 205 -250 110 -530 234 -622 275 -93 41 -171 74 -174 74 -3 0 44 -53 103
-117z"/>
<path d="M27272 23966 c-892 -150 -1624 -275 -1626 -277 -2 -2 91 -42 207 -88
117 -46 627 -250 1135 -452 508 -203 929 -369 935 -369 7 1 103 137 214 303
173 259 569 837 741 1082 40 57 48 75 35 74 -10 0 -748 -123 -1641 -273z"/>
<path d="M26290 19533 c-152 -86 -360 -360 -439 -580 -61 -168 -91 -389 -72
-543 8 -69 5 -136 -15 -360 -137 -1557 -357 -3089 -665 -4642 -18 -92 -31
-169 -29 -171 8 -6 1423 -337 1441 -337 11 0 26 23 44 67 14 37 103 251 197
477 435 1049 587 1457 697 1876 154 586 219 1209 192 1834 -7 149 -15 284 -18
300 -4 20 -2 28 4 21 12 -12 94 -144 330 -529 100 -164 185 -292 187 -285 19
55 197 702 194 704 -2 2 -55 13 -119 24 -146 26 -332 79 -457 131 -53 22 -99
35 -100 30 -6 -17 -33 -40 -47 -40 -23 0 -45 30 -45 60 0 35 -2 37 -111 101
-147 86 -298 206 -434 343 -260 261 -440 551 -554 894 -61 181 -106 424 -114
604 l-2 57 -65 -36z"/>
<path d="M29016 16238 c-130 -370 -236 -678 -236 -684 0 -6 26 -58 59 -115
400 -710 1021 -1918 1341 -2611 29 -63 51 -97 61 -98 9 0 312 61 673 135 361
74 659 135 663 135 8 0 6 6 -120 460 -64 228 -190 695 -281 1038 -210 784
-287 1057 -385 1352 -88 266 -218 600 -235 605 -6 2 -81 22 -166 45 -304 81
-644 200 -933 326 -94 42 -179 78 -188 81 -13 4 -60 -122 -253 -669z"/>
</g>
</svg>
